<svg xmlns="http://www.w3.org/2000/svg" fill="currentColor" height="24" viewBox="0 0 24 24" width="24" focusable="false" aria-hidden="true" style="pointer-events: none; display: inherit; width: 100%; height: 100%;"><path clip-rule="evenodd" d="M18.45 8.851c1.904-1.066 2.541-3.4 1.422-5.214-1.119-1.814-3.57-2.42-5.475-1.355L5.55 7.247c-1.29.722-2.049 2.069-1.968 3.491.081 1.423.989 2.683 2.353 3.268l.942.404-1.327.742c-1.904 1.066-2.541 3.4-1.422 5.214 1.119 1.814 3.57 2.421 5.475 1.355l8.847-4.965c1.29-.722 2.049-2.068 1.968-3.49-.081-1.423-.989-2.684-2.353-3.269l-.942-.403 1.327-.743ZM10 14.567a.25.25 0 00.374.217l4.45-2.567a.25.25 0 000-.433l-4.45-2.567a.25.25 0 00-.374.216v5.134Z" fill-rule="evenodd"></path></svg>